<?xml version="1.0" encoding="utf-8"?>

<!-- Uploaded to: SVG Repo, www.svgrepo.com, Generator: SVG Repo Mixer Tools -->
<svg fill="#000000" height="800px" width="800px" version="1.1" id="Icons" xmlns="http://www.w3.org/2000/svg" xmlns:xlink="http://www.w3.org/1999/xlink" 
	 viewBox="0 0 32 32" xml:space="preserve">
<path d="M18.3,18.3c-3.1,3.1-3.1,8.2,0,11.3s8.2,3.1,11.3,0s3.1-8.2,0-11.3S21.5,15.2,18.3,18.3z M26.8,22.6L25.4,24l1.4,1.4
	c0.4,0.4,0.4,1,0,1.4c-0.4,0.4-1,0.4-1.4,0L24,25.4l-1.4,1.4c-0.4,0.4-1,0.4-1.4,0c-0.4-0.4-0.4-1,0-1.4l1.4-1.4l-1.4-1.4
	c-0.4-0.4-0.4-1,0-1.4c0.4-0.4,1-0.4,1.4,0l1.4,1.4l1.4-1.4c0.4-0.4,1-0.4,1.4,0C27.2,21.6,27.2,22.2,26.8,22.6z"/>
<path d="M8.4,22l1.2-2.3c0.5-1,1.5-1.7,2.7-1.7h3.5c0.1,0,0.2,0,0.2,0c1.8-2.4,4.7-4,8-4c1.2,0,2.3,0.2,3.4,0.6
	C27,14,26.5,13.4,26,13h1c0.6,0,1-0.4,1-1s-0.4-1-1-1h-2.8L23,8c-0.8-1.8-2.6-3-4.6-3H9.6C7.6,5,5.8,6.2,5,8l-1.3,3H1
	c-0.6,0-1,0.4-1,1s0.4,1,1,1h1c-1.2,0.9-2,2.4-2,4v4c0,0.9,0.4,1.7,1,2.2V25c0,1.7,1.3,3,3,3h2c1.7,0,3-1.3,3-3v-1h5
	c0-0.7,0.1-1.4,0.2-2H8.4z M7,19H4c-0.6,0-1-0.4-1-1s0.4-1,1-1h3c0.6,0,1,0.4,1,1S7.6,19,7,19z M5.5,12l1.4-3.2C7.4,7.7,8.4,7,9.6,7
	h8.7c1.2,0,2.3,0.7,2.8,1.8l1.4,3.2H5.5z"/>
</svg>